<svg xmlns="http://www.w3.org/2000/svg" viewBox="0 0 64 64"><path d="M150.1,120.49a29.76,29.76,0,1,0,29.76,29.76A29.76,29.76,0,0,0,150.1,120.49Zm11.23,41.11a3,3,0,0,1-4.3,0l-6.77-6.77-7.08,7.08a3,3,0,1,1-4.3-4.3l7.08-7.08-6.59-6.59a3,3,0,0,1,4.3-4.3l6.59,6.59,6.28-6.28a3,3,0,1,1,4.3,4.3l-6.28,6.28,6.77,6.77A3,3,0,0,1,161.33,161.6Z" transform="translate(-118 -118)"/><path d="M161.33,157.3a3,3,0,0,1-4.3,4.3l-6.77-6.77-7.08,7.08a3,3,0,1,1-4.3-4.3l7.08-7.08-6.59-6.59a3,3,0,1,1,4.3-4.3l6.59,6.59,6.28-6.28a3,3,0,0,1,4.3,4.3l-6.28,6.28ZM182,150a32,32,0,1,1-32-32A32,32,0,0,1,182,150Zm-2.13.25A29.76,29.76,0,1,0,150.1,180,29.76,29.76,0,0,0,179.87,150.25Z" transform="translate(-118 -118)" style="fill:#fff"/></svg>