<svg viewBox="0 0 806.31 130" xmlns="http://www.w3.org/2000/svg" xmlns:xlink="http://www.w3.org/1999/xlink"><linearGradient id="a" gradientUnits="userSpaceOnUse" x1="548.95" x2="663.16" y1="482.89" y2="597.11"><stop offset="0" stop-color="#2196f3"/><stop offset="1" stop-color="#9c27b0"/></linearGradient><g transform="translate(-556.84 -475)"><path d="m556.84 475h65v65a65 65 0 0 1 -65 65v-31.91a33.09 33.09 0 0 0 33.09-33.09v-33.09h-33.09zm71.5 0v31.91a33.07 33.07 0 0 1 33.09 33.09 33.07 33.07 0 0 1 -33.07 33.07v32a65 65 0 0 0 65-65 65 65 0 0 0 -65.02-65.07z" fill="url(#a)"/><g fill="#37474f"><path d="m777.36 495.19a1.52 1.52 0 0 1 1.72 1.72v44.81c0 33.81-8.25 43.78-38.16 43.78a74.64 74.64 0 0 1 -18.92-2.06c-2-.46-3-1.15-3-3.21v-11.46a1.52 1.52 0 0 1 1.72-1.72h20.17c14 0 17-5.5 17-25.33v-28.08h-21.1a1.6 1.6 0 0 1 -1.83-1.72v-15c0-1.15.57-1.72 1.83-1.72z"/><path d="m851.05 552.49c0 26.48-5.84 33-30.48 33s-30.49-6.53-30.49-33 5.85-33.12 30.49-33.12 30.48 6.53 30.48 33.12zm-40.91 0c0 12.61 1.72 15.82 10.43 15.82s10.43-3.21 10.43-15.82-1.72-15.93-10.43-15.93-10.43 3.21-10.43 15.93z"/><path d="m918.44 519.94c1.15 0 1.61.58 1.61 1.84v59.71c0 1.49-.35 1.72-1.61 2-7.22 1.37-19 2.06-29.22 2.06-22.7 0-28.2-4.93-28.2-28v-35.77a1.64 1.64 0 0 1 1.84-1.84h16.5c1.15 0 1.72.58 1.72 1.84v29.68c0 15.93.92 16.85 11.23 16.85h7.69v-46.53c0-1.26.57-1.84 1.72-1.84z"/><path d="m970.47 520.75c1.38.22 1.95.8 1.95 2.4v11.69c0 1.15-.69 1.72-1.95 1.72h-11.34c-4.93 0-7 .8-7 5.73v40.8c0 1.26-.58 1.84-1.72 1.84h-16.61c-1.15 0-1.72-.58-1.72-1.84v-46.18c0-15.25 9.74-17.54 22-17.54a96.63 96.63 0 0 1 16.39 1.38z"/><path d="m1038.78 547.22v35.87c0 1.26-.57 1.84-1.72 1.84h-16.62c-1.14 0-1.6-.58-1.6-1.84v-29.68c0-15.93-1-16.85-11.24-16.85h-7.67v46.53c0 1.26-.58 1.84-1.72 1.84h-16.85c-1.15 0-1.61-.58-1.61-1.84v-59.94c0-1.37.58-1.49 1.61-1.72 7.11-1.72 19.14-2.06 29.34-2.06 22.69 0 28.08 4.93 28.08 27.85z"/><path d="m1105 540v39.43c0 2.29-.8 3.2-2.75 3.66a135.38 135.38 0 0 1 -26.36 2.41c-18.22 0-28.31-1.26-28.54-20.51.23-16.28 8.71-19.26 25-19.26l12.6-.11v-2.3c0-4.81-3-6.76-8.71-6.76h-22.46c-1.15 0-1.49-.34-1.49-1.72v-11.69c0-1.37.46-1.6 1.49-1.83a107.87 107.87 0 0 1 22.46-2c25.11.05 28.76 8.42 28.76 20.68zm-30.71 17.65c-5.73 0-7.22 2-7.22 6 0 4.58 1.83 5.84 8.13 5.84a55.44 55.44 0 0 0 9.74-.91v-10.93z"/><path d="m1135.16 495.19a1.6 1.6 0 0 1 1.72 1.83v86.07c0 1.26-.57 1.84-1.72 1.84h-16.5c-1.15 0-1.72-.58-1.72-1.84v-86.09a1.6 1.6 0 0 1 1.72-1.83z"/><path d="m1224.33 540.23c0 31.86-10.43 45.27-37.94 45.27-11.69 0-22.81-.46-34-1.38-1.37-.11-1.72-.34-1.72-1.37v-85.27c0-1.15.35-1.49 1.72-1.6 11.23-.92 22.35-1.38 34-1.38 27.51 0 37.94 13.5 37.94 45.73zm-52.5-27.23v54.1h14.56c12.15 0 16.5-8 16.5-26.82 0-19-4.47-27.28-16.84-27.28z"/><path d="m1292.74 552.15v3.55c0 2.41-.8 3.1-3.43 3.1h-35.76c.11 8.48 3 9.51 11.92 9.51h21.09a1.51 1.51 0 0 1 1.71 1.72v11.69c0 1.37-.57 1.72-1.6 1.95-6.42 1.37-15.47 1.83-23.38 1.83-24 0-30.14-6.53-30.14-33s6.19-33.12 30.14-33.12c23.61-.01 29.45 6.52 29.45 32.77zm-39.31-5.5h19.26c0-7.8-2.75-10.09-9.4-10.09s-9.86 2.29-9.86 10.09z"/><path d="m1361.62 519.94a1.38 1.38 0 0 1 1.49 1.84l-13.06 49.85c-3.33 12.61-5.39 13.87-20.29 13.87-14.67 0-16.62-1.15-20-13.87l-13.3-49.85c-.23-1.26.34-1.84 1.49-1.84h17.65c1 0 1.15.58 1.6 1.84l10.89 46c.35 1.49.58 1.71 1.61 1.71 1.26 0 1.49-.22 1.83-1.71l10.89-46c.34-1.26.46-1.84 1.6-1.84z"/></g></g></svg>