<svg height="91" viewBox="0 0 644.1296 91" width="644.1296" xmlns="http://www.w3.org/2000/svg"><g fill="#37474f"><path d="m58.336.6877a1.5194 1.5194 0 0 1 1.7192 1.7192v44.8131c0 33.8094-8.2517 43.78-38.1646 43.78a74.4339 74.4339 0 0 1 -18.9106-2.063c-1.9485-.4582-2.98-1.1459-2.98-3.2089v-11.4611a1.5194 1.5194 0 0 1 1.7192-1.7188h20.1714c13.9823 0 16.9621-5.5014 16.9621-25.3285v-28.0797h-21.0882a1.6036 1.6036 0 0 1 -1.8339-1.7192v-15.0139c0-1.1463.5733-1.7192 1.8339-1.7192z"/><path d="m132.0269 57.9921c0 26.4754-5.8457 33.0079-30.4862 33.0079s-30.4862-6.5325-30.4862-33.0079c0-26.5891 5.8455-33.1221 30.4862-33.1221s30.4862 6.533 30.4862 33.1221zm-40.9157 0c0 12.607 1.7192 15.8167 10.43 15.8167s10.43-3.21 10.43-15.8167c0-12.7216-1.72-15.9305-10.43-15.9305s-10.43 3.2089-10.43 15.9305z"/><path d="m199.414 25.4433c1.1467 0 1.6049.573 1.6049 1.8336v59.7118c0 1.49-.3443 1.7187-1.6049 1.9483-7.2203 1.3753-19.0247 2.063-29.2252 2.063-22.6931 0-28.1945-4.9285-28.1945-27.9646v-35.7585a1.636 1.636 0 0 1 1.8344-1.8336h16.5035c1.1458 0 1.7187.573 1.7187 1.8336v29.6842c0 15.93.9177 16.8477 11.232 16.8477h7.6793v-46.5319c0-1.2606.5729-1.8336 1.7188-1.8336z"/><path d="m251.4447 26.2453c1.3754.23 1.9492.8025 1.9492 2.4069v11.69c0 1.1463-.6877 1.7192-1.9492 1.7192h-11.3454c-4.9285 0-6.9916.8024-6.9916 5.731v40.801c0 1.2606-.5729 1.8335-1.7188 1.8335h-16.6189c-1.1458 0-1.7187-.5729-1.7187-1.8335v-46.188c0-15.2428 9.7414-17.535 22.0049-17.535a97.5871 97.5871 0 0 1 16.3885 1.3749z"/><path d="m319.75 52.72v35.8736c0 1.2606-.5729 1.8335-1.7188 1.8335h-16.6179c-1.1458 0-1.6049-.5729-1.6049-1.8335v-29.6842c0-15.9311-1.0311-16.8478-11.2315-16.8478h-7.6784v46.532c0 1.2606-.5729 1.8335-1.72 1.8335h-16.8474c-1.1459 0-1.604-.5729-1.604-1.8335v-59.9414c0-1.3753.5729-1.49 1.604-1.7192 7.1063-1.7187 19.14-2.0626 29.34-2.0626 22.6925-.0004 28.0789 4.9281 28.0789 27.8496z"/><path d="m385.9928 45.5v39.4256c0 2.2926-.8024 3.2089-2.7507 3.668a135.9338 135.9338 0 0 1 -26.3597 2.4064c-18.2231 0-28.3088-1.2606-28.5374-20.5148.2286-16.2749 8.71-19.2542 24.9843-19.2542l12.6069-.1148v-2.2926c0-4.8137-2.9794-6.762-8.71-6.762h-22.4635c-1.1458 0-1.49-.3439-1.49-1.7192v-11.69c0-1.3753.4591-1.6044 1.49-1.8335a107.8892 107.8892 0 0 1 22.4631-1.9489c25.1 0 28.767 8.3669 28.767 20.63zm-30.7152 17.65c-5.73 0-7.22 1.9483-7.22 5.96 0 4.5843 1.8336 5.8449 8.1375 5.8449a55.8563 55.8563 0 0 0 9.7414-.9172v-10.8877z"/><path d="m416.1316.6877a1.6038 1.6038 0 0 1 1.72 1.834v86.0719c0 1.2606-.573 1.8335-1.72 1.8335h-16.5035c-1.1458 0-1.7187-.5729-1.7187-1.8335v-86.0719a1.6035 1.6035 0 0 1 1.7187-1.834z"/><path d="m505.2972 45.73c0 31.8606-10.4291 45.27-37.9355 45.27-11.69 0-22.8074-.4582-34.0389-1.3754-1.3754-.1147-1.7188-.3443-1.7188-1.3753v-85.2693c0-1.1458.3434-1.49 1.7188-1.6044 11.2315-.917 22.3492-1.3756 34.0389-1.3756 27.5064 0 37.9355 13.5241 37.9355 45.73zm-52.4907-27.2778v54.096h14.5552c12.1487 0 16.5035-8.0226 16.5035-26.8187 0-19.0256-4.47-27.2773-16.8469-27.2773z"/><path d="m573.7157 57.6488v3.5531c0 2.4065-.8024 3.0942-3.4384 3.0942h-35.7573c.1147 8.4808 2.98 9.5127 11.9192 9.5127h21.0886a1.5193 1.5193 0 0 1 1.7188 1.7188v11.6906c0 1.3754-.573 1.7188-1.6049 1.9483-6.4181 1.3753-15.4717 1.8335-23.3806 1.8335-23.9533 0-30.1411-6.5325-30.1411-33.0079 0-26.5891 6.1882-33.1217 30.1415-33.1217 23.6094-.0004 29.4542 6.5326 29.4542 32.7784zm-39.3108-5.5015h19.2542c0-7.7936-2.7507-10.0857-9.398-10.0857-6.7611 0-9.8562 2.2921-9.8562 10.0857z"/><path d="m642.5952 25.4433a1.38 1.38 0 0 1 1.49 1.8336l-13.0652 49.8556c-3.3234 12.6069-5.3865 13.8675-20.286 13.8675-14.67 0-16.6182-1.1458-20.0566-13.8675l-13.2946-49.8556c-.23-1.2606.3443-1.8336 1.49-1.8336h17.6493c1.032 0 1.1468.573 1.6049 1.8336l10.8882 45.959c.3434 1.4893.5729 1.7188 1.604 1.7188 1.2606 0 1.49-.23 1.8344-1.7188l10.8872-45.959c.3443-1.2606.4582-1.8336 1.6049-1.8336z"/></g></svg>